<?xml version="1.0" encoding="utf-8"?>
<!-- Generator: Adobe Illustrator 22.0.1, SVG Export Plug-In . SVG Version: 6.00 Build 0)  -->
<svg version="1.1" id="Layer_1" xmlns="http://www.w3.org/2000/svg" xmlns:xlink="http://www.w3.org/1999/xlink" x="0px" y="0px"
	 viewBox="0 0 780 1470" style="enable-background:new 0 0 780 1470;" xml:space="preserve">
<style type="text/css">
	.st0{fill:#F2EFE8;}
</style>
<g>
	<path class="st0" d="M749.1,345.3c0,45,14.5,73.6,31.4,88.7V407c-8.7-19.5-7-47.7,0-61.8v-32.8c-7,10-12.2,20.7-14,32.7
		c-1.4-20.1,4.6-37.5,14-53.6v-60.1l-33.2-50.4l29.7,76.9C777.1,257.9,749.1,289.4,749.1,345.3z"/>
	<path class="st0" d="M597.2,598.5c24.5,34.9,82.1,38.4,104.8,50.6c5.2-7,22.7-71.5-27.9-82.1C651.4,563.5,623.3,586.2,597.2,598.5z
		 M663.6,577.6c-1.8,3.4-15.7,31.4-17.5,47.2C621.7,615.9,632.1,570.5,663.6,577.6z M663.6,630c10.6-10.5,17.5-38.5,19.2-41.9
		C705.5,605.5,682.8,638.6,663.6,630z"/>
	<polygon class="st0" points="681.1,535.6 681.1,535.6 681.1,535.6 	"/>
	<path class="st0" d="M757.9,539.1c-28,27.9-45.5-3.4-76.9-3.4c-27.9,0-59.4,29.7-64.6,10.5c-5.2-15.7,22.7-41.9,61.2-43.7
		c-31.5-8.8-82.1,19.2-90.8,52.4c-10.5,1.8-26.3-12.2-26.3-12.2c8.8,71.6,75.1,8.8,101.4,8.8C684.6,551.3,756.3,603.7,757.9,539.1z"
		/>
	<path class="st0" d="M780.6,984.6c-14-22.4-35.6-39.6-27.9-47.3c6.8-5.9,19,5,27.9,22.8v-64.9c-22.8,0-61.1-8.7-61.1-8.7
		c-3.6,0-7-3.4-7-5.2c0-1.7,1.8-3.4,7-3.4c1.8,0,41.9,1.8,61.1,1.8v-84.3c-2.9-0.1-6-0.5-8.4-1.3c-5.2-1.7-57.7-26.1-49-50.6
		c0,0,15.6,7,55.8,7c0.5,0,1,0,1.5,0v-12.2c-22.7,0-43.4-5.2-43.4-5.2c-17.5-5.2,0-26.1,7-26.1h36.4v-7c-9-0.1-27.9-1.1-29.4-7
		c-3.6-10.5,3.4-68.1,3.4-68.1l-14-7c0,0,8.8-20.9,1.8-27.9c-7-7-26.3-5.2-26.3-5.2c22.7,122.3-90.9,141.4-99.6,103
		c-8.7-40.2,64.6-29.7,64.6-29.7c-14-8.8-64.6-8.8-92.6-36.7c0,0-1.8,5.2,0,10.5c-33.3,14-24.5,47.2-24.5,47.2s15.7-20.9,29.7-20.9
		c0,0-22.7,29.7,10.5,64.6c-17.5,3.6-45.4-10.5-57.6-40.2c-5.2,3.4-7,20.9-5.2,33.2c-15.7-17.5-26.1-45.4-10.5-64.6
		c-20.9,8.8-20.9,12.2-20.9,12.2c0-15.7,29.7-26.1,43.7-45.4c13.9-19.2,12.2-49-19.2-61.2c1.7,29.7-12.2,49-41.9,59.4
		c-27.9,10.5-50.6-3.6-80.3,3.4c47.2,10.5,52.4,78.7,99.6,104.8c-62.9-13.9-82.1-101.2-159-92.6c43.6-62.9,113.5-8.7,143.2-52.4
		C421,596.7,370.2,533.8,361.6,464c-12.2-106.6-103.1-54.2-101.4-106.6c45.4,21,145-57.6,174.7,31.5
		c31.4,92.6,94.3,129.3,150.2,87.3L338.7,226.4l31.5,104.8c-64.6,12.2-141.5-26.1-99.6-115.3c-61.2-27.9-139.7,73.4-66.4,152
		c34.9,36.6,117,22.7,139.7,97.8l-80.3-7l82,22.7l24.2,71.5l-190.3-94.3l118.8,136.3c-69.9,36.7-85.5-66.4-174.7-64.6
		C60.8,532-7.3,594.9,20.7,670c92.6-55.8,122.3-15.7,162.4,22.7l-57.6,29.7l68.1-20.9c22.7,21,52.4,40.2,101.4,36.7
		c80.3-7,152-31.4,169.4-10.5c13.9,15.7-3.6,26.1-31.5,26.1H50.4L204.1,836c-15.7,12.2-57.6,64.6-87.3,64.6S20.7,855.2,3.2,935.6
		c68.2-10.5,103.1,138.1,246.3,19.2L171,1084.1l256.8-141.6c0,40.2-6.9,69.9-15.7,92.6l-134.5,36.7l120.5-12.2
		c-49,64.5-145,31.4-179.9,108.2c-24.4,52.4,34.9,78.7,14,96.1c-34.9-1.8-66.3,29.7-40.2,69.9c17.5,27.9,76.9,45.4,104.8-19.2
		c34.9-80.3-7-87.2,115.3-130.9l-20.9,179.9l206.1-331.9c69.9,87.3-57.6,80.3-64.6,167.7c-1.8,15.7,0,31.4,3.4,45.4l-52.4,59.4
		l59.4-36.7c29.7,71.6,83.9,110-29.7,193.9c10.5,12.2,167.7,19.2,181.7-92.6l82.1,101.4v-284.7c0.7,4.2,1.9,8.4,3.4,12.4V984.6z
		 M254.9,224.7c-19.2,34.9-15.7,99.6,64.6,118.8C185,374.9,188.4,221.2,254.9,224.7z M144.8,643.9c-61.2-33.2-117,7-117,7
		C47,588,162.3,582.8,144.8,643.9z M172.6,617.4c-10.5-12.1-17.5-22.7-27.9-26.1c-12.2-5.2-27.9-3.4-40.2-3.4
		c-15.7,0-29.7,1.8-33.2-8.7c-1.7-7,0.1-14,8.8-19.2c8.7-5.2,20.9-10.5,33.2-10.5c14,0,26.3,3.4,34.9,10.5c7,7,10.5,7,12.2,7
		c1.8-1.7,1.8-5.2,1.8-8.7c-1.8-1.7-1.8-3.4,0-3.4c21,3.6,31.5,17.5,43.7,31.5c19.1,22.7,48.8,57.6,120.5,45.4
		C307.3,694.5,205.9,675.3,172.6,617.4z M230.4,705c-3.4-28,134.5-49,136.3-8.8C368.5,731.2,235.6,736.4,230.4,705z M502.8,752.1
		c14,15.8-76.9,57.6-122.3,41.9C454,794,487.2,736.4,502.8,752.1z M396.4,811.6c50.6,0,82.1-17.5,94.3-29.7
		c-5.2,38.4-43.7,50.6-94.3,50.6c-50.6,0-96.1-56-134.5-19.2c68.2-8.8,78.7,62.9,153.8,38.4C351,923.3,302,797.5,226.9,834.2
		C265.3,743.4,345.6,811.5,396.4,811.6z M24.2,925c38.5-57.6,69.9,20.9,134.5-22.7c21,34.9-31.4,56-62.9,36.7h0
		C64.5,919.9,40,919.9,24.2,925z M274.1,902.4c-15.8,3.4-31.4,41.9-61.1,64.6c-29.7,22.7-101.4,43.7-101.4-3.4
		C188.6,979.3,206,870.9,274.1,902.4L274.1,902.4z M212.9,891.8c31.4-75.1,82-24.5,132.7-7c50.7,17.5,96.1-13.9,124-50.6h0
		C392.8,1008.9,281.1,830.8,212.9,891.8z M405.2,1148.6c-26.3,15.7-59.4,19.2-66.4,7c-7-12.2,24.5-21,50.6-36.7
		c24.5-13.9,41.9-38.4,52.4-27.9h0C454,1103.2,433,1132.9,405.2,1148.6z M347.4,1106.8c47.2-10.5,66.4-48.8,87.3-97.8
		c1.8,27.9-14,92.6-75.1,113.5c-59.4,20.9-104.8,78.5-120.5,55.8C223.4,1153.9,300.3,1117.2,347.4,1106.8z M237.3,1342.5
		c-22.7,1.8-36.6-12.1-38.4-26.1c-5.2-27.9,24.5-36.6,27.9-33.2c3.4,1.8,3.4,7,0,10.5c-3.4,3.4-1.7,6.9,1.8,8.7
		c3.6,1.8,22.7-1.8,29.7-41.9C282.8,1307.6,258.3,1339.1,237.3,1342.5z M506.5,1124.2c-120.5,103-214.8,43.6-237.5,80.3
		c0,0,22.7,1.8,27.9,22.7l22.7-5.2c-22.7,15.7-26.1,115.3-50.6,108.2c41.8-63-45.5-101.4-8.8-136.3c41.9-38.5,139.7,24.5,202.6-89.1
		c40.2-73.4-43.6-216.6,99.6-323.2c-17.5,14-94.3,82.1-69.9,263.8c24.5-40.2,3.4-188.6,75.1-242.7c-56,68.1-14,197.4-76.9,303.9
		C578,1043.8,536.1,874.4,578,829C548.3,883.2,614.6,1033.3,506.5,1124.2z M721.1,741.6c-15.7,5.3-19.2,33.3,29.7,43.7
		c-15.7,3.4-54.1-5.3-55.8-31.5C693.3,733,723,731.2,721.1,741.6z M766.7,814.8c6.9,10.5-7,49-19.2,52.4
		c-10.5,3.6-45.4-3.4-54.2-26.1c33.2,8.8,34.9-3.4,34.9-3.4s-29.7,0-41.9-20.9c24.5,8.7,34.9,0,34.9,0s-45.4-17.5-47.2-27.9
		C719.4,790.6,766.6,813.3,766.7,814.8z M569.3,1444.1c0,0,40.2-15.8,40.2-78.7c0-62.9-40.2-92.6-40.2-152c0-99.6,96-85.7,96-141.5
		c0-57.6-83.8-71.6-61.1-216.6c0,122.3,85.5,148.4,85.5,213c0,62.9-99.6,62.9-99.6,143.2c0,75.1,41.9,90.8,41.9,152l0,0
		C632.1,1431.6,584.9,1445.5,569.3,1444.1z M763.4,1089.3c-19.2,47.2-66.4,66.4-78.7,124c-19.2,94.3,43.6,169.4-66.4,228.8
		c0,0,27.9-38.5,27.9-76.9c0-54.1-33.2-94.3-33.2-150.2c0-69.9,92.6-85.5,92.6-150.2s-59.4-104.8-54.2-162.4
		c17.5,47.1,80.3,101.2,80.3,160.6c0,59.3-83.8,89-96,143.2c-12.2,55.8,26.1,101.2,26.1,132.7c8.7-36.7-12.2-87.3-1.8-129.3
		c13.9-59.4,66.3-83.9,80.3-134.5c14-48.8-5.2-83.8-40.2-143.2h0C764.8,977.5,778.9,1047.4,763.4,1089.3z"/>
	<path class="st0" d="M518.6,546.1c-127.5,1.8-34.9-137.9-129.3-159c49,33.2,22.7,62.9,22.7,117C412.1,568.8,490.7,588,518.6,546.1z
		"/>
	<path class="st0" d="M665.4,416.8c-3.4,0-8.7-1.8-12.2-3.4c-19.2-12.2-29.7-45.4-49-41.9c12.2,8.7,7,40.2,22.7,57.6
		c7,8.8,19.2,14,31.5,14c22.7,0,41.9-19.2,41.9-41.9c0-14-7-24.5-15.7-33.2c-14-10.5-34.9-19.2-96-40.2
		c-145-49,71.6-195.6-27.9-277.7c54.2,118.8-104.8,188.7-22.7,270.8c36.7,36.7,115.3,31.5,141.5,59.4c3.4,3.4,7,8.7,7,15.7
		C686.3,408.1,677.5,416.8,665.4,416.8z"/>
	<path class="st0" d="M541.3,504.1c-26.3,0-68.1-12.2-82.1-49C445.2,488.4,487.2,574,541.3,504.1z"/>
	<path class="st0" d="M398.2,243.8l68.1,33.2c1.8,22.7,10.5,47.2,34.9,75.1c26.3,31.4,97.9,40.2,101.4,113.5
		c22.7-22.7,5.2-73.3-43.7-103c-183.3-108.2,124-275.9-73.3-337.1C656.6,13.2,583.3,168.6,599,228c19.2,85.7,97.8,64.6,139.7,118.8
		L691.5,86.6l-43.7,181.7c-59.4-8.7-38.5-90.8-36.7-165.9C612.9-39,370.1,1.2,403.3,81.5c12.2,31.5,94.3-36.7,94.3,34.9
		c1.8,49-29.7,92.6-33.2,139.7L398.2,243.8z M419.1,70.9c-17.5-20.9,64.6-43.6,80.3,7C459.2,51.8,427.7,79.7,419.1,70.9z"/>
	<path class="st0" d="M565.8,219.4c-82.1,152,197.4,83.9,160.6,213C785.9,292.7,534.3,369.6,565.8,219.4z"/>
</g>
</svg>
